<svg width="15" height="15" viewBox="0 0 15 15" fill="none" xmlns="http://www.w3.org/2000/svg">
<path d="M14.5 3.07422C14.4818 3.73047 14.2357 4.30469 13.7617 4.79687L8.07422 10.0742L7.44531 12.0977C7.22656 12.7357 6.79818 13.1641 6.16016 13.3828L1.92188 14.6953C1.48438 14.8047 1.11979 14.7135 0.828125 14.4219C0.536458 14.1302 0.445313 13.7656 0.554688 13.3281L1.86719 9.08984C2.08594 8.45182 2.51432 8.02344 3.15234 7.80469L5.17578 7.17578L10.4531 1.48828C10.9271 1.01432 11.5013 0.768229 12.1758 0.75C12.832 0.768229 13.3789 0.996094 13.8164 1.43359C14.2539 1.87109 14.4818 2.41797 14.5 3.07422ZM6.43359 7.72266L7.52734 8.81641L12.8594 3.83984C13.0781 3.62109 13.1875 3.36589 13.1875 3.07422C13.1875 2.78255 13.0872 2.53646 12.8867 2.33594C12.7044 2.15365 12.4674 2.05339 12.1758 2.03516C11.8659 2.05339 11.6107 2.17187 11.4102 2.39062L6.43359 7.72266ZM6.76172 9.91016L5.33984 8.48828L3.53516 9.0625C3.31641 9.11719 3.17057 9.25391 3.09766 9.47266L2.19531 12.4258L3.5625 11.0586C3.54427 11.0404 3.53516 11.0312 3.53516 11.0312C3.53516 10.849 3.59896 10.694 3.72656 10.5664C3.85417 10.4388 4.00911 10.375 4.19141 10.375C4.61068 10.4115 4.82943 10.6302 4.84766 11.0312C4.82943 11.4323 4.61068 11.651 4.19141 11.6875C4.20964 11.6875 4.20964 11.6784 4.19141 11.6602L2.82422 13.0547L5.77734 12.1523C5.99609 12.0794 6.14193 11.9336 6.21484 11.7148L6.76172 9.91016Z" fill="#4A4A4A"/>
</svg>
