<svg width="14" height="15" viewBox="0 0 14 15" fill="none" xmlns="http://www.w3.org/2000/svg">
<path d="M12.25 9.0625C12.7422 9.08073 13.1523 9.25391 13.4805 9.58203C13.8086 9.91016 13.9818 10.3203 14 10.8125V13C13.9818 13.4922 13.8086 13.9023 13.4805 14.2305C13.1523 14.5586 12.7422 14.7318 12.25 14.75H1.75C1.25781 14.7318 0.847656 14.5586 0.519531 14.2305C0.191406 13.9023 0.0182292 13.4922 0 13V10.8125C0.0182292 10.3203 0.191406 9.91016 0.519531 9.58203C0.847656 9.25391 1.25781 9.08073 1.75 9.0625H3.22656L4.53906 10.375H1.75C1.47656 10.3932 1.33073 10.5391 1.3125 10.8125V13C1.33073 13.2734 1.47656 13.4193 1.75 13.4375H12.25C12.5234 13.4193 12.6693 13.2734 12.6875 13V10.8125C12.6693 10.5391 12.5234 10.3932 12.25 10.375H9.48828L10.8008 9.0625H12.25ZM11.8125 11.9062C11.776 12.3073 11.5573 12.526 11.1562 12.5625C10.7552 12.526 10.5365 12.3073 10.5 11.9062C10.5365 11.5052 10.7552 11.2865 11.1562 11.25C11.5573 11.2865 11.776 11.5052 11.8125 11.9062ZM6.53516 10.8125L2.78906 7.12109C2.53385 6.8112 2.53385 6.5013 2.78906 6.19141C3.09896 5.9362 3.40885 5.9362 3.71875 6.19141L6.34375 8.78906V1.40625C6.38021 1.00521 6.59896 0.786458 7 0.75C7.40104 0.786458 7.61979 1.00521 7.65625 1.40625V8.78906L10.2539 6.19141C10.5638 5.9362 10.8737 5.9362 11.1836 6.19141C11.4388 6.5013 11.4388 6.8112 11.1836 7.12109L7.46484 10.8398C7.33724 10.9674 7.18229 11.0312 7 11.0312C6.81771 11.0312 6.66276 10.9583 6.53516 10.8125Z" fill="white"/>
</svg>
