<svg width="19" height="13" viewBox="0 0 19 13" fill="none" xmlns="http://www.w3.org/2000/svg">
<path d="M17.375 5.875C17.6302 5.875 17.8398 5.95703 18.0039 6.12109C18.168 6.28516 18.25 6.49479 18.25 6.75C18.25 7.00521 18.168 7.21484 18.0039 7.37891C17.8398 7.54297 17.6302 7.625 17.375 7.625V9.59375C17.3568 10.0312 17.2109 10.3958 16.9375 10.6875C16.6458 10.9609 16.2812 11.1068 15.8438 11.125H14.9688C14.8958 11.125 14.832 11.1159 14.7773 11.0977C14.7591 11.0977 14.75 11.0977 14.75 11.0977V11.3437C14.7318 11.7812 14.5859 12.1458 14.3125 12.4375C14.0208 12.7109 13.6563 12.8568 13.2188 12.875H12.3438C11.9063 12.8568 11.5417 12.7109 11.25 12.4375C10.9766 12.1458 10.8307 11.7812 10.8125 11.3437V7.625L8.1875 7.625L8.1875 11.3438C8.16927 11.7812 8.02344 12.1458 7.75 12.4375C7.45833 12.7109 7.09375 12.8568 6.65625 12.875H5.78125C5.34375 12.8568 4.97917 12.7109 4.6875 12.4375C4.41406 12.1458 4.26823 11.7812 4.25 11.3438V11.0977C4.17708 11.1159 4.10417 11.125 4.03125 11.125H3.15625C2.71875 11.1068 2.35417 10.9609 2.0625 10.6875C1.78906 10.3958 1.64323 10.0312 1.625 9.59375L1.59766 7.625C1.36068 7.625 1.16016 7.54297 0.996094 7.37891C0.832031 7.21484 0.75 7.00521 0.75 6.75C0.75 6.49479 0.832031 6.28516 0.996094 6.12109C1.16016 5.95703 1.36979 5.875 1.625 5.875L1.625 3.90625C1.64323 3.46875 1.78906 3.10417 2.0625 2.8125C2.35417 2.53906 2.71875 2.39323 3.15625 2.375L4.03125 2.375C4.10417 2.375 4.17708 2.38411 4.25 2.40234V2.15625C4.26823 1.71875 4.41406 1.35417 4.6875 1.0625C4.97917 0.789062 5.34375 0.643229 5.78125 0.625H6.65625C7.09375 0.643229 7.45833 0.789062 7.75 1.0625C8.02344 1.35417 8.16927 1.71875 8.1875 2.15625V5.875H10.8125L10.8125 2.15625C10.8307 1.71875 10.9766 1.35417 11.25 1.0625C11.5417 0.789062 11.9062 0.643229 12.3438 0.625H13.2188C13.6562 0.643229 14.0208 0.789062 14.3125 1.0625C14.5859 1.35417 14.7318 1.71875 14.75 2.15625V2.40234C14.8229 2.38411 14.8958 2.375 14.9688 2.375H15.8438C16.2812 2.39323 16.6458 2.53906 16.9375 2.8125C17.2109 3.10417 17.3568 3.46875 17.375 3.90625V5.875ZM4.03125 9.8125C4.15885 9.79427 4.23177 9.72135 4.25 9.59375L4.25 3.90625C4.23177 3.77865 4.15885 3.70573 4.03125 3.6875H3.15625C3.02865 3.70573 2.95573 3.77865 2.9375 3.90625L2.9375 9.59375C2.95573 9.72135 3.02865 9.79427 3.15625 9.8125H4.03125ZM6.875 11.3438L6.875 2.15625C6.85677 2.02865 6.78385 1.95573 6.65625 1.9375H5.78125C5.65365 1.95573 5.58073 2.02865 5.5625 2.15625L5.5625 11.3438C5.58073 11.4714 5.65365 11.5443 5.78125 11.5625H6.65625C6.78385 11.5443 6.85677 11.4714 6.875 11.3438ZM13.4375 11.3437L13.4375 2.15625C13.4193 2.02865 13.3464 1.95573 13.2188 1.9375H12.3438C12.2161 1.95573 12.1432 2.02865 12.125 2.15625L12.125 11.3437C12.1432 11.4714 12.2161 11.5443 12.3438 11.5625H13.2188C13.3464 11.5443 13.4193 11.4714 13.4375 11.3437ZM16.0625 9.59375V3.90625C16.0443 3.77865 15.9714 3.70573 15.8438 3.6875H14.9688C14.8411 3.70573 14.7682 3.77865 14.75 3.90625L14.75 9.59375C14.7682 9.72135 14.8411 9.79427 14.9688 9.8125H15.8438C15.9714 9.79427 16.0443 9.72135 16.0625 9.59375Z" fill="#4A4A4A"/>
</svg>
