<svg width="600" height="305" viewBox="0 5 600 305" fill="none" xmlns="http://www.w3.org/2000/svg">
<g clip-path="url(#clip0_233_5131)">
<rect width="33.3172" height="33.3172" transform="matrix(-4.37114e-08 1 1 4.37114e-08 177 23.9014)" stroke="#8984FF" stroke-width="2"/>
<rect width="33.3172" height="33.3172" transform="matrix(-4.37114e-08 1 1 4.37114e-08 210.316 23.9014)" stroke="#8984FF" stroke-width="2"/>
<rect width="33.3172" height="33.3172" transform="matrix(-4.37114e-08 1 1 4.37114e-08 243.635 -9.41455)" stroke="#8984FF" stroke-width="2"/>
<rect width="33.3172" height="33.3172" transform="matrix(-4.37114e-08 1 1 4.37114e-08 243.635 23.9014)" stroke="#8984FF" stroke-width="2"/>
<rect width="33.3172" height="33.3172" transform="matrix(-4.37114e-08 1 1 4.37114e-08 243.635 123.862)" stroke="#8984FF" stroke-width="2"/>
<rect width="33.3172" height="33.3172" transform="matrix(-4.37114e-08 1 1 4.37114e-08 243.635 90.5396)" stroke="#8984FF" stroke-width="2"/>
<rect width="33.3172" height="33.3172" transform="matrix(-4.37114e-08 1 1 4.37114e-08 243.635 190.494)" stroke="#8984FF" stroke-width="2"/>
<rect width="33.3172" height="33.3172" transform="matrix(-4.37114e-08 1 1 4.37114e-08 243.635 57.2231)" stroke="#8984FF" stroke-width="2"/>
<rect width="33.3172" height="33.3172" transform="matrix(-4.37114e-08 1 1 4.37114e-08 243.635 157.178)" stroke="#8984FF" stroke-width="2"/>
<rect width="33.3172" height="33.3172" transform="matrix(-4.37114e-08 1 1 4.37114e-08 276.951 -9.41406)" stroke="#8984FF" stroke-width="2"/>
<rect width="33.3172" height="33.3172" transform="matrix(-4.37114e-08 1 1 4.37114e-08 310.164 -9.41406)" stroke="#8984FF" stroke-width="2"/>
<rect width="33.3172" height="33.3172" transform="matrix(-4.37114e-08 1 1 4.37114e-08 376.592 -9.41431)" stroke="#8984FF" stroke-width="2"/>
<rect width="33.3172" height="33.3172" transform="matrix(-4.37114e-08 1 1 4.37114e-08 443.019 -9.41455)" stroke="#8984FF" stroke-width="2"/>
<rect width="33.3172" height="33.3172" transform="matrix(-4.37114e-08 1 1 4.37114e-08 476.23 -9.41455)" stroke="#8984FF" stroke-width="2"/>
<rect width="33.3172" height="33.3172" transform="matrix(-4.37114e-08 1 1 4.37114e-08 542.658 -9.41455)" stroke="#8984FF" stroke-width="2"/>
<rect width="33.3172" height="33.3172" transform="matrix(-4.37114e-08 1 1 4.37114e-08 575.872 -9.41455)" stroke="#8984FF" stroke-width="2"/>
<rect width="33.3172" height="33.3172" transform="matrix(-4.37114e-08 1 1 4.37114e-08 276.951 23.9014)" stroke="#8984FF" stroke-width="2"/>
<rect width="33.3172" height="33.3172" transform="matrix(-4.37114e-08 1 1 4.37114e-08 310.164 23.9016)" stroke="#8984FF" stroke-width="2"/>
<rect width="33.3172" height="33.3172" transform="matrix(-4.37114e-08 1 1 4.37114e-08 343.377 23.9016)" stroke="#8984FF" stroke-width="2"/>
<rect width="33.3172" height="33.3172" transform="matrix(-4.37114e-08 1 1 4.37114e-08 409.805 23.9014)" stroke="#8984FF" stroke-width="2"/>
<rect width="33.3172" height="33.3172" transform="matrix(-4.37114e-08 1 1 4.37114e-08 443.019 23.9014)" stroke="#8984FF" stroke-width="2"/>
<rect width="33.3172" height="33.3172" transform="matrix(-4.37114e-08 1 1 4.37114e-08 476.23 23.9016)" stroke="#8984FF" stroke-width="2"/>
<rect width="33.3172" height="33.3172" transform="matrix(-4.37114e-08 1 1 4.37114e-08 509.445 23.9016)" stroke="#8984FF" stroke-width="2"/>
<rect width="33.3172" height="33.3172" transform="matrix(-4.37114e-08 1 1 4.37114e-08 542.658 23.9014)" stroke="#8984FF" stroke-width="2"/>
<rect width="33.3172" height="33.3172" transform="matrix(-4.37114e-08 1 1 4.37114e-08 575.872 23.9014)" stroke="#8984FF" stroke-width="2"/>
<rect width="33.3172" height="33.3172" transform="matrix(-4.37114e-08 1 1 4.37114e-08 276.951 123.862)" stroke="#8984FF" stroke-width="2"/>
<rect width="33.3172" height="33.3172" transform="matrix(-4.37114e-08 1 1 4.37114e-08 310.164 123.862)" stroke="#8984FF" stroke-width="2"/>
<rect width="33.3172" height="33.3172" transform="matrix(-4.37114e-08 1 1 4.37114e-08 376.592 123.862)" stroke="#8984FF" stroke-width="2"/>
<rect width="33.3172" height="33.3172" transform="matrix(-4.37114e-08 1 1 4.37114e-08 409.805 123.862)" stroke="#8984FF" stroke-width="2"/>
<rect width="33.3172" height="33.3172" transform="matrix(-4.37114e-08 1 1 4.37114e-08 443.019 123.862)" stroke="#8984FF" stroke-width="2"/>
<rect width="33.3172" height="33.3172" transform="matrix(-4.37114e-08 1 1 4.37114e-08 476.23 123.862)" stroke="#8984FF" stroke-width="2"/>
<rect width="33.3172" height="33.3172" transform="matrix(-4.37114e-08 1 1 4.37114e-08 509.445 123.862)" stroke="#8984FF" stroke-width="2"/>
<rect width="33.3172" height="33.3172" transform="matrix(-4.37114e-08 1 1 4.37114e-08 509.445 223.578)" stroke="#8984FF" stroke-width="2"/>
<rect width="33.3172" height="33.3172" transform="matrix(-4.37114e-08 1 1 4.37114e-08 542.658 123.862)" stroke="#8984FF" stroke-width="2"/>
<rect width="33.3172" height="33.3172" transform="matrix(-4.37114e-08 1 1 4.37114e-08 542.658 223.578)" stroke="#8984FF" stroke-width="2"/>
<rect width="33.3172" height="33.3172" transform="matrix(-4.37114e-08 1 1 4.37114e-08 575.872 123.862)" stroke="#8984FF" stroke-width="2"/>
<rect width="33.3172" height="33.3172" transform="matrix(-4.37114e-08 1 1 4.37114e-08 575.872 223.578)" stroke="#8984FF" stroke-width="2"/>
<rect width="33.3172" height="33.3172" transform="matrix(-4.37114e-08 1 1 4.37114e-08 276.951 57.2231)" stroke="#8984FF" stroke-width="2"/>
<rect width="33.3172" height="33.3172" transform="matrix(-4.37114e-08 1 1 4.37114e-08 310.164 57.2234)" stroke="#8984FF" stroke-width="2"/>
<rect width="33.3172" height="33.3172" transform="matrix(-4.37114e-08 1 1 4.37114e-08 343.377 57.2234)" stroke="#8984FF" stroke-width="2"/>
<rect width="33.3172" height="33.3172" transform="matrix(-4.37114e-08 1 1 4.37114e-08 376.592 57.2234)" stroke="#8984FF" stroke-width="2"/>
<rect width="33.3172" height="33.3172" transform="matrix(-4.37114e-08 1 1 4.37114e-08 409.805 57.2231)" stroke="#8984FF" stroke-width="2"/>
<rect width="33.3172" height="33.3172" transform="matrix(-4.37114e-08 1 1 4.37114e-08 443.019 57.2236)" stroke="#8984FF" stroke-width="2"/>
<rect width="33.3172" height="33.3172" transform="matrix(-4.37114e-08 1 1 4.37114e-08 476.23 57.2236)" stroke="#8984FF" stroke-width="2"/>
<rect width="33.3172" height="33.3172" transform="matrix(-4.37114e-08 1 1 4.37114e-08 509.445 57.2236)" stroke="#8984FF" stroke-width="2"/>
<rect width="33.3172" height="33.3172" transform="matrix(-4.37114e-08 1 1 4.37114e-08 542.658 57.2236)" stroke="#8984FF" stroke-width="2"/>
<rect width="33.3172" height="33.3172" transform="matrix(-4.37114e-08 1 1 4.37114e-08 276.951 157.178)" stroke="#8984FF" stroke-width="2"/>
<rect width="33.3172" height="33.3172" transform="matrix(-4.37114e-08 1 1 4.37114e-08 443.019 157.178)" stroke="#8984FF" stroke-width="2"/>
<rect width="33.3172" height="33.3172" transform="matrix(-4.37114e-08 1 1 4.37114e-08 476.23 157.178)" stroke="#8984FF" stroke-width="2"/>
<rect width="33.3172" height="33.3172" transform="matrix(-4.37114e-08 1 1 4.37114e-08 476.231 256.894)" stroke="#8984FF" stroke-width="2"/>
<rect width="33.3172" height="33.3172" transform="matrix(-4.37114e-08 1 1 4.37114e-08 509.445 157.178)" stroke="#8984FF" stroke-width="2"/>
<rect width="33.3172" height="33.3172" transform="matrix(-4.37114e-08 1 1 4.37114e-08 509.445 256.894)" stroke="#8984FF" stroke-width="2"/>
<rect width="33.3172" height="33.3172" transform="matrix(-4.37114e-08 1 1 4.37114e-08 542.658 157.178)" stroke="#8984FF" stroke-width="2"/>
<rect width="33.3172" height="33.3172" transform="matrix(-4.37114e-08 1 1 4.37114e-08 542.658 256.894)" stroke="#8984FF" stroke-width="2"/>
<rect width="33.3172" height="33.3172" transform="matrix(-4.37114e-08 1 1 4.37114e-08 575.872 157.178)" stroke="#8984FF" stroke-width="2"/>
<rect width="33.3172" height="33.3172" transform="matrix(-4.37114e-08 1 1 4.37114e-08 575.872 256.894)" stroke="#8984FF" stroke-width="2"/>
<rect width="33.3172" height="33.3172" transform="matrix(-4.37114e-08 1 1 4.37114e-08 210.316 157.178)" stroke="#8984FF" stroke-width="2"/>
<rect width="33.3172" height="33.3172" transform="matrix(-4.37114e-08 1 1 4.37114e-08 276.951 90.5396)" stroke="#8984FF" stroke-width="2"/>
<rect width="33.3172" height="33.3172" transform="matrix(-4.37114e-08 1 1 4.37114e-08 310.164 90.5396)" stroke="#8984FF" stroke-width="2"/>
<rect width="33.3172" height="33.3172" transform="matrix(-4.37114e-08 1 1 4.37114e-08 343.377 90.5396)" stroke="#8984FF" stroke-width="2"/>
<rect width="33.3172" height="33.3172" transform="matrix(-4.37114e-08 1 1 4.37114e-08 376.592 90.5396)" stroke="#8984FF" stroke-width="2"/>
<rect width="33.3172" height="33.3172" transform="matrix(-4.37114e-08 1 1 4.37114e-08 409.805 90.5396)" stroke="#8984FF" stroke-width="2"/>
<rect width="33.3172" height="33.3172" transform="matrix(-4.37114e-08 1 1 4.37114e-08 443.019 90.5396)" stroke="#8984FF" stroke-width="2"/>
<rect width="33.3172" height="33.3172" transform="matrix(-4.37114e-08 1 1 4.37114e-08 476.23 90.5396)" stroke="#8984FF" stroke-width="2"/>
<rect width="33.3172" height="33.3172" transform="matrix(-4.37114e-08 1 1 4.37114e-08 509.445 90.5396)" stroke="#8984FF" stroke-width="2"/>
<rect width="33.3172" height="33.3172" transform="matrix(-4.37114e-08 1 1 4.37114e-08 542.658 90.5396)" stroke="#8984FF" stroke-width="2"/>
<rect width="33.3172" height="33.3172" transform="matrix(-4.37114e-08 1 1 4.37114e-08 575.872 90.5396)" stroke="#8984FF" stroke-width="2"/>
<rect width="33.3172" height="33.3172" transform="matrix(-4.37114e-08 1 1 4.37114e-08 476.231 290.21)" stroke="#8984FF" stroke-width="2"/>
<rect width="33.3172" height="33.3172" transform="matrix(-4.37114e-08 1 1 4.37114e-08 509.445 190.493)" stroke="#8984FF" stroke-width="2"/>
<rect width="33.3172" height="33.3172" transform="matrix(-4.37114e-08 1 1 4.37114e-08 509.445 290.21)" stroke="#8984FF" stroke-width="2"/>
<rect width="33.3172" height="33.3172" transform="matrix(-4.37114e-08 1 1 4.37114e-08 542.658 190.494)" stroke="#8984FF" stroke-width="2"/>
<rect width="33.3172" height="33.3172" transform="matrix(-4.37114e-08 1 1 4.37114e-08 575.872 190.494)" stroke="#8984FF" stroke-width="2"/>
<rect width="33.3172" height="33.3172" transform="matrix(-4.37114e-08 1 1 4.37114e-08 575.872 290.21)" stroke="#8984FF" stroke-width="2"/>
<rect width="33.3172" height="33.3172" transform="matrix(-4.37114e-08 1 1 4.37114e-08 210.316 190.494)" stroke="#8984FF" stroke-width="2"/>
</g>
<defs>
<clipPath id="clip0_233_5131">
<rect width="600" height="305" fill="white"/>
</clipPath>
</defs>
</svg>
