<svg width="73" height="20" viewBox="0 0 73 20" fill="none" xmlns="http://www.w3.org/2000/svg">
<g clip-path="url(#clip0_233_5389)">
<g clip-path="url(#clip1_233_5389)">
<path d="M68.7409 0.247314L66.5581 9.25666H66.3441L64.1612 0.247314H61.0073C61.5505 2.67543 64.8325 12.6844 64.8668 12.7873L64.8694 12.7971V19.5352H68.0283V12.7971L68.0307 12.7873C68.0625 12.6893 71.3051 2.95233 71.8901 0.247314H68.7409Z" fill="#232228"/>
<path d="M11.8165 9.89153C11.8165 9.37206 11.8067 8.88448 11.787 8.43364H5.84776V11.5748H8.62068C8.49778 13.7359 8.11429 15.2207 7.4825 15.9876C6.94169 16.6417 6.33941 16.6417 5.98052 16.6417C5.17663 16.6417 3.29605 16.6417 3.29605 9.89153C3.29605 3.14125 5.17663 3.14125 5.98052 3.14125C6.60491 3.14125 7.89797 3.14125 8.42894 6.37059H11.6124C11.4453 5.11855 11.1749 4.08703 10.7815 3.21722C9.58682 0.558761 7.512 0.00012207 5.98052 0.00012207C4.44898 0.00012207 2.37174 0.558761 1.17947 3.21722C0.473944 4.78779 0.144531 6.90719 0.144531 9.89153C0.144531 12.8758 0.473944 14.9952 1.17947 16.5658C2.3742 19.2242 4.44898 19.7829 5.98052 19.7829C7.512 19.7829 9.58922 19.2242 10.7815 16.5658C11.4871 14.9977 11.8165 12.8758 11.8165 9.89153Z" fill="#232228"/>
<path d="M52.4767 0.247314H49.3254V19.5352H52.4767V11.5745H57.059V19.5352H60.2082V0.247314H57.059V8.43335H52.4744L52.4767 0.247314Z" fill="#232228"/>
<path d="M47.2018 2.33241C46.2699 0.98727 44.8173 0.247314 43.116 0.247314H37.5063V19.5352H40.6553V13.2774H43.2342C44.9426 13.2774 46.3807 12.5251 47.2805 11.1628C48.0155 10.048 48.3891 8.56811 48.3891 6.76234C48.3915 4.98596 47.981 3.45214 47.2018 2.33241ZM44.65 9.43789C44.3255 9.92794 43.9026 10.1387 43.2366 10.1387H40.6579V3.38598H43.1187C43.8018 3.38598 44.2615 3.6114 44.6131 4.11616C45.0189 4.70173 45.2426 5.64017 45.2426 6.76234C45.24 7.91146 45.031 8.85974 44.65 9.43789Z" fill="#232228"/>
<path d="M23.1503 13.7576C22.6218 12.1454 21.2771 12.0106 21.1395 12.0058V11.8465C21.3336 11.8269 22.8922 11.4642 23.5215 9.04345C23.6789 8.35251 23.76 7.58804 23.76 6.755C23.76 4.9737 23.3495 3.44235 22.5702 2.32261C21.6385 0.97747 20.1856 0.247314 18.4821 0.247314H13.0688V19.5352H16.2229V13.2724H17.6438C18.3223 13.2724 19.0229 13.2724 19.4408 13.444C19.5932 13.5052 19.8734 13.6204 20.0578 14.3603C20.3257 15.507 20.5691 17.7955 20.7265 19.5352H23.8902C23.7206 17.646 23.3667 14.4118 23.1503 13.7576ZM20.021 9.43058C19.6964 9.92063 19.2737 10.1314 18.6049 10.1314H16.2229V3.37864H18.4845C19.1704 3.37864 19.6301 3.60406 19.9816 4.10879C20.3872 4.69684 20.611 5.63769 20.611 6.75745C20.611 7.90167 20.3995 8.85232 20.021 9.43058Z" fill="#232228"/>
<path d="M33.258 19.5352H36.4145L33.3711 0.249878H27.9112L24.8704 19.5352H28.0267L28.7372 14.7893H32.5475L33.258 19.5352ZM29.2091 11.6481L30.5367 2.76866H30.7506L32.078 11.6481H29.2091Z" fill="#232228"/>
</g>
</g>
<defs>
<clipPath id="clip0_233_5389">
<rect width="72.1045" height="20" fill="white"/>
</clipPath>
<clipPath id="clip1_233_5389">
<rect width="72.1045" height="19.9998" fill="white"/>
</clipPath>
</defs>
</svg>
