<svg width="18" height="19" viewBox="0 0 18 19" fill="none" xmlns="http://www.w3.org/2000/svg">
<path d="M9 0.25C10.6875 0.273438 12.1992 0.683594 13.5352 1.48047C14.8945 2.27734 15.9727 3.35547 16.7695 4.71484C17.5664 6.05078 17.9766 7.5625 18 9.25C17.9766 10.9375 17.5664 12.4492 16.7695 13.7852C15.9727 15.1445 14.8945 16.2227 13.5352 17.0195C12.1992 17.8164 10.6875 18.2266 9 18.25C7.52344 18.2266 6.16406 17.8984 4.92188 17.2656C3.67969 16.6328 2.63672 15.7656 1.79297 14.6641C1.62891 14.3594 1.66406 14.0898 1.89844 13.8555C2.20312 13.668 2.47266 13.7031 2.70703 13.9609C3.43359 14.9453 4.33594 15.7188 5.41406 16.2812C6.51562 16.8438 7.71094 17.125 9 17.125C10.4766 17.1016 11.8008 16.7383 12.9727 16.0352C14.168 15.3555 15.1055 14.418 15.7852 13.2227C16.4883 12.0508 16.8516 10.7266 16.875 9.25C16.8516 7.77344 16.4883 6.44922 15.7852 5.27734C15.1055 4.08203 14.168 3.14453 12.9727 2.46484C11.8008 1.76172 10.4766 1.39844 9 1.375C7.40625 1.39844 5.98828 1.82031 4.74609 2.64062C3.48047 3.4375 2.53125 4.51562 1.89844 5.875H5.0625C5.41406 5.89844 5.60156 6.08594 5.625 6.4375C5.60156 6.78906 5.41406 6.97656 5.0625 7H0.5625C0.210938 6.97656 0.0234375 6.78906 0 6.4375V1.9375C0.0234375 1.58594 0.210938 1.39844 0.5625 1.375C0.914062 1.39844 1.10156 1.58594 1.125 1.9375V4.85547C1.92188 3.47266 3 2.35938 4.35938 1.51562C5.74219 0.695313 7.28906 0.273438 9 0.25ZM9 4.75C9.35156 4.77344 9.53906 4.96094 9.5625 5.3125V9.00391L12.1992 11.6758C12.4336 11.9336 12.4336 12.1914 12.1992 12.4492C11.9414 12.6836 11.6836 12.6836 11.4258 12.4492L8.61328 9.63672C8.49609 9.54297 8.42578 9.41406 8.40234 9.25V5.3125C8.44922 4.96094 8.63672 4.77344 8.96484 4.75H9Z" fill="#152561"/>
<path d="M9 0.25L9.00083 0.190125L8.99918 0.190147L9 0.25ZM13.5352 1.48047L13.5045 1.53188L13.5049 1.53211L13.5352 1.48047ZM16.7695 4.71484L16.7179 4.74512L16.7181 4.74551L16.7695 4.71484ZM18 9.25L18.0599 9.25083L18.0599 9.24917L18 9.25ZM16.7695 13.7852L16.7181 13.7545L16.7179 13.7549L16.7695 13.7852ZM13.5352 17.0195L13.5049 16.9679L13.5045 16.9681L13.5352 17.0195ZM9 18.25L8.99905 18.3099L9.00083 18.3099L9 18.25ZM1.79297 14.6641L1.73959 14.6928L1.74545 14.7005L1.79297 14.6641ZM1.89844 13.8555L1.86619 13.8031L1.85611 13.8131L1.89844 13.8555ZM2.70703 13.9609L2.75544 13.9252L2.75132 13.9207L2.70703 13.9609ZM5.41406 16.2812L5.38637 16.3343L5.38684 16.3346L5.41406 16.2812ZM9 17.125V17.1849L9.00095 17.1849L9 17.125ZM12.9727 16.0352L12.9431 15.9831L12.9419 15.9838L12.9727 16.0352ZM15.7852 13.2227L15.7338 13.1919L15.7331 13.1931L15.7852 13.2227ZM16.875 9.25L16.9349 9.25095L16.9349 9.24905L16.875 9.25ZM15.7852 5.27734L15.7331 5.30694L15.7338 5.30814L15.7852 5.27734ZM12.9727 2.46484L12.9419 2.51619L12.9431 2.51688L12.9727 2.46484ZM9 1.375L9.00095 1.31512L8.99912 1.31515L9 1.375ZM4.74609 2.64062L4.77799 2.69129L4.77908 2.69057L4.74609 2.64062ZM1.89844 5.875L1.84417 5.84974L1.80455 5.93486H1.89844V5.875ZM5.0625 5.875L5.06649 5.81514H5.0625V5.875ZM5.625 6.4375L5.68526 6.44152L5.68473 6.43352L5.625 6.4375ZM5.0625 7V7.05999L5.06648 7.05973L5.0625 7ZM0.5625 7L0.558509 7.05986H0.5625V7ZM0 6.4375H-0.0599914L-0.0597259 6.44148L0 6.4375ZM0 1.9375L-0.0598585 1.93351V1.9375H0ZM0.5625 1.375L0.566517 1.31474L0.558518 1.31527L0.5625 1.375ZM1.125 1.9375H1.18499L1.18473 1.93352L1.125 1.9375ZM1.125 4.85547H1.06514V5.07923L1.17686 4.88536L1.125 4.85547ZM4.35938 1.51562L4.32883 1.46413L4.32781 1.46477L4.35938 1.51562ZM9 4.75L9.00399 4.69014H9V4.75ZM9.5625 5.3125H9.62249L9.62223 5.30852L9.5625 5.3125ZM9.5625 9.00391H9.50264V9.02847L9.51989 9.04595L9.5625 9.00391ZM12.1992 11.6758L12.2435 11.6355L12.2418 11.6337L12.1992 11.6758ZM12.1992 12.4492L12.2397 12.4937L12.2435 12.4895L12.1992 12.4492ZM11.4258 12.4492L11.3834 12.4916L11.3855 12.4935L11.4258 12.4492ZM8.61328 9.63672L8.65587 9.59413L8.65067 9.58998L8.61328 9.63672ZM8.40234 9.25H8.34188L8.34309 9.25846L8.40234 9.25ZM8.40234 5.3125L8.34249 5.30452V5.3125H8.40234ZM8.96484 4.75V4.68999L8.96058 4.69029L8.96484 4.75ZM8.99917 0.309853C10.6771 0.333157 12.1783 0.740841 13.5045 1.53188L13.5658 1.42906C12.2201 0.626347 10.6979 0.213718 9.00083 0.190147L8.99917 0.309853ZM13.5049 1.53211C14.8554 2.32381 15.9262 3.39457 16.7179 4.74512L16.8212 4.68457C16.0191 3.31636 14.9336 2.23088 13.5654 1.42883L13.5049 1.53211ZM16.7181 4.74551C17.5092 6.07166 17.9168 7.57292 17.9401 9.25083L18.0599 9.24917C18.0363 7.55208 17.6237 6.02991 16.8209 4.68418L16.7181 4.74551ZM17.9401 9.24917C17.9168 10.9271 17.5092 12.4283 16.7181 13.7545L16.8209 13.8158C17.6237 12.4701 18.0363 10.9479 18.0599 9.25083L17.9401 9.24917ZM16.7179 13.7549C15.9262 15.1054 14.8554 16.1762 13.5049 16.9679L13.5654 17.0712C14.9336 16.2691 16.0191 15.1836 16.8212 13.8154L16.7179 13.7549ZM13.5045 16.9681C12.1783 17.7592 10.6771 18.1668 8.99917 18.1901L9.00083 18.3099C10.6979 18.2863 12.2201 17.8737 13.5658 17.0709L13.5045 16.9681ZM9.00095 18.1901C7.53296 18.1668 6.18262 17.8407 4.94905 17.2123L4.8947 17.319C6.1455 17.9562 7.51392 18.2863 8.99905 18.3099L9.00095 18.1901ZM4.94905 17.2123C3.71478 16.5835 2.67878 15.7221 1.84049 14.6277L1.74545 14.7005C2.59466 15.8092 3.64459 16.6821 4.8947 17.319L4.94905 17.2123ZM1.84567 14.6357C1.76796 14.4914 1.74008 14.3604 1.75564 14.2411C1.77117 14.1221 1.83081 14.0078 1.94076 13.8978L1.85611 13.8131C1.73169 13.9376 1.65657 14.0751 1.63693 14.2257C1.61734 14.3759 1.65392 14.5321 1.74027 14.6924L1.84567 14.6357ZM1.92981 13.9064C2.07418 13.8176 2.20399 13.7853 2.32136 13.8006C2.43848 13.8158 2.55234 13.8798 2.66274 14.0012L2.75132 13.9207C2.62735 13.7843 2.48925 13.7017 2.33684 13.6819C2.18468 13.662 2.02738 13.7058 1.86707 13.8045L1.92981 13.9064ZM2.65887 13.9965C3.3908 14.9881 4.30013 15.7676 5.38637 16.3343L5.44175 16.2282C4.37174 15.6699 3.47639 14.9025 2.75519 13.9254L2.65887 13.9965ZM5.38684 16.3346C6.49719 16.9015 7.70189 17.1849 9 17.1849V17.0651C7.71999 17.0651 6.53406 16.786 5.44128 16.2279L5.38684 16.3346ZM9.00095 17.1849C10.4872 17.1613 11.8218 16.7955 13.0035 16.0865L12.9419 15.9838C11.7797 16.6811 10.466 17.0419 8.99905 17.0651L9.00095 17.1849ZM13.0022 16.0872C14.2069 15.4022 15.1522 14.4569 15.8372 13.2522L15.7331 13.1931C15.0588 14.379 14.129 15.3088 12.9431 15.9831L13.0022 16.0872ZM15.8365 13.2535C16.5455 12.0718 16.9113 10.7372 16.9349 9.25095L16.8151 9.24905C16.7919 10.716 16.4311 12.0297 15.7338 13.1919L15.8365 13.2535ZM16.9349 9.24905C16.9113 7.76284 16.5455 6.42817 15.8365 5.24655L15.7338 5.30814C16.4311 6.47027 16.7919 7.78404 16.8151 9.25095L16.9349 9.24905ZM15.8372 5.24776C15.1522 4.04308 14.2069 3.09782 13.0022 2.41281L12.9431 2.51688C14.129 3.19124 15.0588 4.12099 15.7331 5.30693L15.8372 5.24776ZM13.0035 2.41352C11.8218 1.70454 10.4872 1.33874 9.00095 1.31515L8.99905 1.43485C10.466 1.45814 11.7797 1.8189 12.9419 2.51617L13.0035 2.41352ZM8.99912 1.31515C7.39479 1.33874 5.96551 1.76361 4.71311 2.59068L4.77908 2.69057C6.01105 1.87701 7.41771 1.45813 9.00088 1.43485L8.99912 1.31515ZM4.7142 2.58997C3.4388 3.393 2.48183 4.47995 1.84417 5.84974L1.9527 5.90026C2.58067 4.5513 3.52213 3.482 4.77799 2.69128L4.7142 2.58997ZM1.89844 5.93486H5.0625V5.81514H1.89844V5.93486ZM5.05852 5.93473C5.22466 5.9458 5.34394 5.995 5.42447 6.07553C5.505 6.15606 5.5542 6.27534 5.56527 6.44148L5.68473 6.43352C5.67236 6.24809 5.61609 6.09785 5.50912 5.99088C5.40215 5.88391 5.25191 5.82764 5.06648 5.81527L5.05852 5.93473ZM5.56527 6.43352C5.5542 6.59966 5.505 6.71894 5.42447 6.79947C5.34394 6.88 5.22466 6.9292 5.05852 6.94027L5.06648 7.05973C5.25191 7.04736 5.40215 6.99109 5.50912 6.88412C5.61609 6.77715 5.67236 6.62691 5.68473 6.44148L5.56527 6.43352ZM5.0625 6.94014H0.5625V7.05986H5.0625V6.94014ZM0.566482 6.94027C0.400343 6.9292 0.281059 6.88 0.200529 6.79947C0.12 6.71894 0.0708018 6.59966 0.0597259 6.43352L-0.0597259 6.44148C-0.0473643 6.62691 0.00890614 6.77715 0.115877 6.88412C0.222847 6.99109 0.373094 7.04736 0.558518 7.05973L0.566482 6.94027ZM0.0598585 6.4375V1.9375H-0.0598585V6.4375H0.0598585ZM0.0597259 1.94148C0.0708018 1.77534 0.12 1.65606 0.200529 1.57553C0.281059 1.495 0.400343 1.4458 0.566482 1.43473L0.558518 1.31527C0.373094 1.32764 0.222847 1.38391 0.115877 1.49088C0.00890614 1.59785 -0.0473643 1.74809 -0.0597259 1.93352L0.0597259 1.94148ZM0.558518 1.43473C0.724657 1.4458 0.843941 1.495 0.92447 1.57553C1.005 1.65606 1.0542 1.77534 1.06527 1.94148L1.18473 1.93352C1.17236 1.74809 1.11609 1.59785 1.00912 1.49088C0.902153 1.38391 0.751906 1.32764 0.566482 1.31527L0.558518 1.43473ZM1.06514 1.9375V4.85547H1.18486V1.9375H1.06514ZM1.17686 4.88536C1.96879 3.51112 3.03994 2.40504 4.39094 1.56648L4.32781 1.46477C2.96006 2.31371 1.87496 3.43419 1.07314 4.82558L1.17686 4.88536ZM4.38991 1.56711C5.76314 0.75248 7.29965 0.333157 9.00082 0.309853L8.99918 0.190147C7.27847 0.213718 5.72123 0.638145 4.32884 1.46414L4.38991 1.56711ZM8.99602 4.80973C9.16216 4.8208 9.28144 4.87 9.36197 4.95053C9.4425 5.03106 9.4917 5.15034 9.50277 5.31648L9.62223 5.30852C9.60986 5.12309 9.55359 4.97285 9.44662 4.86588C9.33965 4.75891 9.18941 4.70264 9.00398 4.69027L8.99602 4.80973ZM9.50264 5.3125V9.00391H9.62236V5.3125H9.50264ZM9.51989 9.04595L12.1566 11.7178L12.2418 11.6337L9.60511 8.96186L9.51989 9.04595ZM12.1549 11.716C12.2657 11.8379 12.3151 11.9531 12.3151 12.0625C12.3151 12.1719 12.2657 12.2871 12.1549 12.409L12.2435 12.4895C12.3671 12.3535 12.4349 12.2109 12.4349 12.0625C12.4349 11.9141 12.3671 11.7715 12.2435 11.6355L12.1549 11.716ZM12.159 12.4049C12.0371 12.5157 11.9219 12.5651 11.8125 12.5651C11.7031 12.5651 11.5879 12.5157 11.466 12.4049L11.3855 12.4935C11.5215 12.6171 11.6641 12.6849 11.8125 12.6849C11.9609 12.6849 12.1035 12.6171 12.2395 12.4935L12.159 12.4049ZM11.4681 12.4069L8.65561 9.59439L8.57096 9.67904L11.3835 12.4915L11.4681 12.4069ZM8.65067 9.58998C8.54666 9.50677 8.48313 9.39223 8.4616 9.24154L8.34309 9.25846C8.36843 9.43589 8.44553 9.57917 8.57589 9.68346L8.65067 9.58998ZM8.4622 9.25V5.3125H8.34249V9.25H8.4622ZM8.46168 5.32041C8.48396 5.15329 8.53869 5.03229 8.62045 4.95053C8.70174 4.86924 8.81583 4.82065 8.96911 4.80971L8.96058 4.69029C8.78574 4.70278 8.64201 4.75966 8.5358 4.86588C8.43006 4.97162 8.3676 5.12015 8.34301 5.30459L8.46168 5.32041ZM8.96484 4.80986H9V4.69014H8.96484V4.80986Z" fill="white"/>
</svg>
