<svg width="17" height="15" viewBox="0 0 17 15" fill="none" xmlns="http://www.w3.org/2000/svg">
<path d="M14.8711 9.17187C15.4544 9.39062 15.8737 9.75521 16.1289 10.2656C16.3841 10.7943 16.4115 11.3594 16.2109 11.9609L15.8008 13.2461C15.6367 13.7018 15.3724 14.0664 15.0078 14.3398C14.625 14.6133 14.1966 14.75 13.7227 14.75L3.25 14.75C2.77604 14.75 2.34766 14.6042 1.96484 14.3125C1.60026 14.0391 1.32682 13.6745 1.14453 13.2188L0.734375 11.9336C0.552083 11.3503 0.588542 10.7943 0.84375 10.2656C1.11719 9.75521 1.54557 9.39062 2.12891 9.17188C2.16536 9.15365 2.21094 9.14453 2.26563 9.14453C2.28385 9.14453 2.30208 9.13542 2.32031 9.11719C2.32031 9.09896 2.3112 9.08984 2.29297 9.08984C2.14714 8.90755 2.01042 8.72526 1.88281 8.54297C1.55469 8.03255 1.4362 7.48568 1.52734 6.90234C1.63672 6.33724 1.94661 5.8724 2.45703 5.50781C3.16797 5.07031 3.87891 5.01562 4.58984 5.34375C4.58984 5.28906 4.58984 5.24349 4.58984 5.20703C4.57161 5.09766 4.5625 4.9974 4.5625 4.90625C4.5625 4.72396 4.58073 4.55078 4.61719 4.38672C4.03385 4.00391 3.72396 3.44792 3.6875 2.71875C3.70573 2.15365 3.89714 1.6888 4.26172 1.32422C4.6263 0.959635 5.09115 0.768229 5.65625 0.75C6.09375 0.75 6.48568 0.877604 6.83203 1.13281C7.16016 1.38802 7.38802 1.71615 7.51562 2.11719C7.84375 2.08073 8.17188 2.0625 8.5 2.0625C8.8099 2.0625 9.13802 2.08073 9.48438 2.11719C9.61198 1.71615 9.83984 1.38802 10.168 1.13281C10.5143 0.877604 10.9062 0.75 11.3438 0.75C11.9089 0.768229 12.3737 0.959635 12.7383 1.32422C13.1029 1.6888 13.2943 2.15365 13.3125 2.71875C13.276 3.42969 12.9661 3.98568 12.3828 4.38672C12.4193 4.55078 12.4375 4.72396 12.4375 4.90625C12.4375 4.9974 12.4284 5.08854 12.4102 5.17969C12.4102 5.23437 12.4102 5.28906 12.4102 5.34375C13.1211 5.01562 13.832 5.07031 14.543 5.50781C15.0534 5.8724 15.3633 6.33724 15.4727 6.90234C15.5638 7.48568 15.4453 8.03255 15.1172 8.54297C14.9896 8.72526 14.8529 8.90755 14.707 9.08984C14.6888 9.08984 14.6797 9.09896 14.6797 9.11719C14.6979 9.13542 14.7161 9.14453 14.7344 9.14453C14.7891 9.14453 14.8346 9.15365 14.8711 9.17187ZM11.3438 2.0625C11.0885 2.08073 10.8971 2.19922 10.7695 2.41797C11.1888 2.58203 11.5352 2.83724 11.8086 3.18359C11.9362 3.05599 12 2.90104 12 2.71875C11.9635 2.31771 11.7448 2.09896 11.3438 2.0625ZM6.80469 3.59375C6.53125 3.66667 6.3125 3.82161 6.14844 4.05859C5.96615 4.29557 5.875 4.57812 5.875 4.90625C5.875 5.30729 5.94792 5.68099 6.09375 6.02734C6.29427 5.68099 6.60417 5.40755 7.02344 5.20703C7.44271 5.00651 7.9349 4.90625 8.5 4.90625C9.0651 4.90625 9.55729 5.00651 9.97656 5.20703C10.3958 5.40755 10.7057 5.68099 10.9062 6.02734C11.0521 5.68099 11.125 5.30729 11.125 4.90625C11.125 4.57812 11.0339 4.29557 10.8516 4.05859C10.6875 3.82161 10.4688 3.66667 10.1953 3.59375C9.63021 3.44792 9.0651 3.375 8.5 3.375C7.9349 3.375 7.36979 3.44792 6.80469 3.59375ZM8.5 6.65625C8.24479 6.65625 8.03516 6.59245 7.87109 6.46484C7.70703 6.33724 7.625 6.18229 7.625 6C7.625 5.98177 7.625 5.96354 7.625 5.94531C7.64323 5.92708 7.65234 5.91797 7.65234 5.91797C7.08724 6.10026 6.78646 6.38281 6.75 6.76562C6.76823 7.03906 6.94141 7.26693 7.26953 7.44922C7.59766 7.64974 8.00781 7.75 8.5 7.75C8.99219 7.75 9.40234 7.64974 9.73047 7.44922C10.0586 7.26693 10.2318 7.03906 10.25 6.76562C10.2135 6.38281 9.91276 6.10026 9.34766 5.91797C9.34766 5.91797 9.35677 5.92708 9.375 5.94531C9.375 5.96354 9.375 5.98177 9.375 6C9.375 6.18229 9.29297 6.33724 9.12891 6.46484C8.96484 6.59245 8.75521 6.65625 8.5 6.65625ZM5.65625 2.0625C5.25521 2.09896 5.03646 2.31771 5 2.71875C5 2.90104 5.0638 3.04687 5.19141 3.15625C5.46484 2.82812 5.8112 2.58203 6.23047 2.41797C6.10286 2.19922 5.91146 2.08073 5.65625 2.0625ZM3.19531 6.60156C2.99479 6.7474 2.8763 6.92969 2.83984 7.14844C2.78516 7.38542 2.83073 7.60417 2.97656 7.80469C3.77865 8.95312 4.74479 9.78255 5.875 10.293V10.3203C6.27604 9.9375 6.75911 9.73698 7.32422 9.71875L9.67578 9.71875C10.2409 9.73698 10.724 9.9375 11.125 10.3203V10.293C12.2552 9.78255 13.2214 8.95312 14.0234 7.80469C14.1693 7.60417 14.2148 7.38542 14.1602 7.14844C14.1237 6.92969 14.0052 6.7474 13.8047 6.60156C13.6042 6.45573 13.3854 6.41016 13.1484 6.46484C12.9297 6.5013 12.7474 6.61979 12.6016 6.82031C12.0911 7.53125 11.5078 8.08724 10.8516 8.48828C10.1953 8.87109 9.5026 9.0625 8.77344 9.0625H8.22656C7.4974 9.0625 6.80469 8.87109 6.14844 8.48828C5.49219 8.08724 4.90885 7.53125 4.39844 6.82031C4.2526 6.61979 4.07031 6.5013 3.85156 6.46484C3.61458 6.41016 3.39583 6.45573 3.19531 6.60156ZM6.3125 13.4375V13.3281C6.29427 12.6719 5.99349 12.1797 5.41016 11.8516C5.17318 11.7422 4.92708 11.6875 4.67188 11.6875H3.87891L3.63281 10.9766C3.5599 10.7396 3.41406 10.5664 3.19531 10.457C2.99479 10.3659 2.77604 10.3568 2.53906 10.4297C2.30208 10.5026 2.12891 10.6484 2.01953 10.8672C1.92839 11.0677 1.91927 11.2865 1.99219 11.5234L2.42969 12.8359C2.57552 13.2188 2.84896 13.4193 3.25 13.4375H6.3125ZM9.375 13.3281C9.39323 12.5078 9.67578 11.8151 10.2227 11.25C10.0768 11.1042 9.89453 11.0312 9.67578 11.0312L7.32422 11.0312C7.10547 11.0312 6.92318 11.1042 6.77734 11.25C7.32422 11.8151 7.60677 12.5078 7.625 13.3281V13.4375L9.375 13.4375V13.3281ZM15.0078 11.5234C15.0807 11.2865 15.0716 11.0677 14.9805 10.8672C14.8711 10.6484 14.6979 10.5026 14.4609 10.4297C14.224 10.3568 14.0052 10.3659 13.8047 10.457C13.5859 10.5664 13.4401 10.7396 13.3672 10.9766L13.1211 11.6875H12.3281C12.0729 11.6875 11.8268 11.7422 11.5898 11.8516C11.0065 12.1797 10.7057 12.6719 10.6875 13.3281V13.4375H13.75C14.151 13.4193 14.4245 13.2187 14.5703 12.8359L15.0078 11.5234ZM7.1875 5.125C6.91406 5.10677 6.76823 4.96094 6.75 4.6875C6.76823 4.41406 6.91406 4.26823 7.1875 4.25C7.46094 4.26823 7.60677 4.41406 7.625 4.6875C7.60677 4.96094 7.46094 5.10677 7.1875 5.125ZM9.8125 5.125C9.53906 5.10677 9.39323 4.96094 9.375 4.6875C9.39323 4.41406 9.53906 4.26823 9.8125 4.25C10.0859 4.26823 10.2318 4.41406 10.25 4.6875C10.2318 4.96094 10.0859 5.10677 9.8125 5.125Z" fill="#4A4A4A"/>
</svg>
