<svg width="12" height="13" viewBox="0 0 12 13" fill="none" xmlns="http://www.w3.org/2000/svg">
<path d="M10.9238 0.875C11.1426 0.875 11.3223 0.945312 11.4629 1.08594C11.6035 1.22656 11.6738 1.40625 11.6738 1.625V5C11.6738 5.21875 11.6035 5.39844 11.4629 5.53906C11.3223 5.67969 11.1426 5.75 10.9238 5.75H7.92383C7.70508 5.75 7.52539 5.67969 7.38477 5.53906C7.24414 5.39844 7.17383 5.21875 7.17383 5C7.17383 4.78125 7.24414 4.60156 7.38477 4.46094C7.52539 4.32031 7.70508 4.25 7.92383 4.25H8.95508C8.62695 3.78125 8.21289 3.41406 7.71289 3.14844C7.19727 2.88281 6.64258 2.75 6.04883 2.75C5.25195 2.76562 4.54883 2.99219 3.93945 3.42969C3.33008 3.88281 2.89258 4.48438 2.62695 5.23438C2.56445 5.4375 2.44727 5.58594 2.27539 5.67969C2.08789 5.75781 1.89258 5.76562 1.68945 5.70312C1.48633 5.64062 1.3457 5.52344 1.26758 5.35156C1.17383 5.16406 1.1582 4.96875 1.2207 4.76562C1.58008 3.70312 2.18945 2.85156 3.04883 2.21094C3.92383 1.58594 4.92383 1.26563 6.04883 1.25C6.89258 1.25 7.67383 1.4375 8.39258 1.8125C9.11133 2.1875 9.70508 2.70312 10.1738 3.35938V1.625C10.1738 1.40625 10.2441 1.22656 10.3848 1.08594C10.5254 0.945312 10.7051 0.875 10.9238 0.875ZM10.4082 7.29688C10.6113 7.34375 10.752 7.46094 10.8301 7.64844C10.9238 7.83594 10.9395 8.03125 10.877 8.23438C10.502 9.29688 9.88477 10.1484 9.02539 10.7891C8.15039 11.4141 7.15039 11.7344 6.02539 11.75C5.19727 11.75 4.42383 11.5625 3.70508 11.1875C3.00195 10.8125 2.4082 10.2969 1.92383 9.64062V11.375C1.92383 11.5938 1.85352 11.7734 1.71289 11.9141C1.57227 12.0547 1.39258 12.125 1.17383 12.125C0.955078 12.125 0.775391 12.0547 0.634766 11.9141C0.494141 11.7734 0.423828 11.5938 0.423828 11.375V8C0.423828 7.78125 0.494141 7.60156 0.634766 7.46094C0.775391 7.32031 0.955078 7.25 1.17383 7.25H4.17383C4.39258 7.25 4.57227 7.32031 4.71289 7.46094C4.85352 7.60156 4.92383 7.78125 4.92383 8C4.92383 8.21875 4.85352 8.39844 4.71289 8.53906C4.57227 8.67969 4.39258 8.75 4.17383 8.75H3.14258C3.4707 9.21875 3.88477 9.58594 4.38477 9.85156C4.90039 10.1172 5.45508 10.25 6.04883 10.25C6.8457 10.2344 7.54883 10.0078 8.1582 9.57031C8.76758 9.11719 9.20508 8.51562 9.4707 7.76562C9.5332 7.5625 9.65039 7.42188 9.82227 7.34375C10.0098 7.25 10.2051 7.23438 10.4082 7.29688Z" fill="#3A3D50"/>
</svg>
