<svg width="12" height="13" viewBox="0 0 12 13" fill="none" xmlns="http://www.w3.org/2000/svg">
<path d="M10.875 0.875C11.0938 0.875 11.2734 0.945312 11.4141 1.08594C11.5547 1.22656 11.625 1.40625 11.625 1.625V5C11.625 5.21875 11.5547 5.39844 11.4141 5.53906C11.2734 5.67969 11.0938 5.75 10.875 5.75H7.875C7.65625 5.75 7.47656 5.67969 7.33594 5.53906C7.19531 5.39844 7.125 5.21875 7.125 5C7.125 4.78125 7.19531 4.60156 7.33594 4.46094C7.47656 4.32031 7.65625 4.25 7.875 4.25H8.90625C8.57812 3.78125 8.16406 3.41406 7.66406 3.14844C7.14844 2.88281 6.59375 2.75 6 2.75C5.20312 2.76562 4.5 2.99219 3.89062 3.42969C3.28125 3.88281 2.84375 4.48438 2.57812 5.23438C2.51562 5.4375 2.39844 5.58594 2.22656 5.67969C2.03906 5.75781 1.84375 5.76562 1.64062 5.70312C1.4375 5.64062 1.29688 5.52344 1.21875 5.35156C1.125 5.16406 1.10938 4.96875 1.17188 4.76562C1.53125 3.70312 2.14062 2.85156 3 2.21094C3.875 1.58594 4.875 1.26563 6 1.25C6.84375 1.25 7.625 1.4375 8.34375 1.8125C9.0625 2.1875 9.65625 2.70312 10.125 3.35938V1.625C10.125 1.40625 10.1953 1.22656 10.3359 1.08594C10.4766 0.945312 10.6562 0.875 10.875 0.875ZM10.3594 7.29688C10.5625 7.34375 10.7031 7.46094 10.7812 7.64844C10.875 7.83594 10.8906 8.03125 10.8281 8.23438C10.4531 9.29688 9.83594 10.1484 8.97656 10.7891C8.10156 11.4141 7.10156 11.7344 5.97656 11.75C5.14844 11.75 4.375 11.5625 3.65625 11.1875C2.95312 10.8125 2.35938 10.2969 1.875 9.64062V11.375C1.875 11.5938 1.80469 11.7734 1.66406 11.9141C1.52344 12.0547 1.34375 12.125 1.125 12.125C0.90625 12.125 0.726562 12.0547 0.585938 11.9141C0.445312 11.7734 0.375 11.5938 0.375 11.375V8C0.375 7.78125 0.445312 7.60156 0.585938 7.46094C0.726562 7.32031 0.90625 7.25 1.125 7.25H4.125C4.34375 7.25 4.52344 7.32031 4.66406 7.46094C4.80469 7.60156 4.875 7.78125 4.875 8C4.875 8.21875 4.80469 8.39844 4.66406 8.53906C4.52344 8.67969 4.34375 8.75 4.125 8.75H3.09375C3.42188 9.21875 3.83594 9.58594 4.33594 9.85156C4.85156 10.1172 5.40625 10.25 6 10.25C6.79688 10.2344 7.5 10.0078 8.10938 9.57031C8.71875 9.11719 9.15625 8.51562 9.42188 7.76562C9.48438 7.5625 9.60156 7.42188 9.77344 7.34375C9.96094 7.25 10.1562 7.23438 10.3594 7.29688Z" fill="#6059FF"/>
</svg>
