<svg width="14" height="14" viewBox="0 0 14 14" fill="none" xmlns="http://www.w3.org/2000/svg">
<path d="M4.94116 4.47047C4.99321 4.23501 5.32757 4.23126 5.38488 4.4655L5.49853 4.93C5.90234 6.58035 7.1909 7.86891 8.84125 8.27271L9.34423 8.39578C9.57623 8.45255 9.5756 8.78266 9.34338 8.83855L8.86569 8.9535C7.21374 9.35103 5.92024 10.6348 5.5102 12.2836L5.36933 12.8501C5.31228 13.0795 4.98674 13.081 4.92767 12.8521L4.77682 12.2675C4.36256 10.6622 3.109 9.40869 1.50371 8.99442L0.954193 8.85261C0.723124 8.79298 0.727621 8.46329 0.960231 8.40998L1.4273 8.30295C3.14278 7.90982 4.47843 6.56382 4.8583 4.84536L4.94116 4.47047Z" fill="white"/>
<path d="M10.6063 1.31632C10.6629 1.06024 11.0285 1.06434 11.0908 1.31908C11.3146 2.23381 12.0317 2.95978 12.9465 3.1836L12.9846 3.19292C13.2429 3.25613 13.2359 3.62522 12.9774 3.68745C12.0576 3.90877 11.3282 4.62571 11.0999 5.54373L11.0775 5.63382C11.014 5.88925 10.6515 5.89085 10.5858 5.63599L10.5607 5.53889C10.3301 4.64515 9.63215 3.94724 8.73841 3.71659L8.68032 3.7016C8.42302 3.6352 8.42803 3.26809 8.68704 3.20874L8.74059 3.19646C9.67342 2.98269 10.3997 2.25077 10.6063 1.31632Z" fill="white"/>
</svg>
