<svg width="18" height="15" viewBox="0 0 18 15" fill="none" xmlns="http://www.w3.org/2000/svg">
<path d="M15.3711 9.17187C15.9544 9.39062 16.3737 9.75521 16.6289 10.2656C16.8841 10.7943 16.9115 11.3594 16.7109 11.9609L16.3008 13.2461C16.1367 13.7018 15.8724 14.0664 15.5078 14.3398C15.125 14.6133 14.6966 14.75 14.2227 14.75L3.75 14.75C3.27604 14.75 2.84766 14.6042 2.46484 14.3125C2.10026 14.0391 1.82682 13.6745 1.64453 13.2188L1.23438 11.9336C1.05208 11.3503 1.08854 10.7943 1.34375 10.2656C1.61719 9.75521 2.04557 9.39062 2.62891 9.17188C2.66536 9.15365 2.71094 9.14453 2.76563 9.14453C2.78385 9.14453 2.80208 9.13542 2.82031 9.11719C2.82031 9.09896 2.8112 9.08984 2.79297 9.08984C2.64714 8.90755 2.51042 8.72526 2.38281 8.54297C2.05469 8.03255 1.9362 7.48568 2.02734 6.90234C2.13672 6.33724 2.44661 5.8724 2.95703 5.50781C3.66797 5.07031 4.37891 5.01562 5.08984 5.34375C5.08984 5.28906 5.08984 5.24349 5.08984 5.20703C5.07161 5.09766 5.0625 4.9974 5.0625 4.90625C5.0625 4.72396 5.08073 4.55078 5.11719 4.38672C4.53385 4.00391 4.22396 3.44792 4.1875 2.71875C4.20573 2.15365 4.39714 1.6888 4.76172 1.32422C5.1263 0.959635 5.59115 0.768229 6.15625 0.75C6.59375 0.75 6.98568 0.877604 7.33203 1.13281C7.66016 1.38802 7.88802 1.71615 8.01562 2.11719C8.34375 2.08073 8.67188 2.0625 9 2.0625C9.3099 2.0625 9.63802 2.08073 9.98438 2.11719C10.112 1.71615 10.3398 1.38802 10.668 1.13281C11.0143 0.877604 11.4062 0.75 11.8438 0.75C12.4089 0.768229 12.8737 0.959635 13.2383 1.32422C13.6029 1.6888 13.7943 2.15365 13.8125 2.71875C13.776 3.42969 13.4661 3.98568 12.8828 4.38672C12.9193 4.55078 12.9375 4.72396 12.9375 4.90625C12.9375 4.9974 12.9284 5.08854 12.9102 5.17969C12.9102 5.23437 12.9102 5.28906 12.9102 5.34375C13.6211 5.01562 14.332 5.07031 15.043 5.50781C15.5534 5.8724 15.8633 6.33724 15.9727 6.90234C16.0638 7.48568 15.9453 8.03255 15.6172 8.54297C15.4896 8.72526 15.3529 8.90755 15.207 9.08984C15.1888 9.08984 15.1797 9.09896 15.1797 9.11719C15.1979 9.13542 15.2161 9.14453 15.2344 9.14453C15.2891 9.14453 15.3346 9.15365 15.3711 9.17187ZM11.8438 2.0625C11.5885 2.08073 11.3971 2.19922 11.2695 2.41797C11.6888 2.58203 12.0352 2.83724 12.3086 3.18359C12.4362 3.05599 12.5 2.90104 12.5 2.71875C12.4635 2.31771 12.2448 2.09896 11.8438 2.0625ZM7.30469 3.59375C7.03125 3.66667 6.8125 3.82161 6.64844 4.05859C6.46615 4.29557 6.375 4.57812 6.375 4.90625C6.375 5.30729 6.44792 5.68099 6.59375 6.02734C6.79427 5.68099 7.10417 5.40755 7.52344 5.20703C7.94271 5.00651 8.4349 4.90625 9 4.90625C9.5651 4.90625 10.0573 5.00651 10.4766 5.20703C10.8958 5.40755 11.2057 5.68099 11.4062 6.02734C11.5521 5.68099 11.625 5.30729 11.625 4.90625C11.625 4.57812 11.5339 4.29557 11.3516 4.05859C11.1875 3.82161 10.9688 3.66667 10.6953 3.59375C10.1302 3.44792 9.5651 3.375 9 3.375C8.4349 3.375 7.86979 3.44792 7.30469 3.59375ZM9 6.65625C8.74479 6.65625 8.53516 6.59245 8.37109 6.46484C8.20703 6.33724 8.125 6.18229 8.125 6C8.125 5.98177 8.125 5.96354 8.125 5.94531C8.14323 5.92708 8.15234 5.91797 8.15234 5.91797C7.58724 6.10026 7.28646 6.38281 7.25 6.76562C7.26823 7.03906 7.44141 7.26693 7.76953 7.44922C8.09766 7.64974 8.50781 7.75 9 7.75C9.49219 7.75 9.90234 7.64974 10.2305 7.44922C10.5586 7.26693 10.7318 7.03906 10.75 6.76562C10.7135 6.38281 10.4128 6.10026 9.84766 5.91797C9.84766 5.91797 9.85677 5.92708 9.875 5.94531C9.875 5.96354 9.875 5.98177 9.875 6C9.875 6.18229 9.79297 6.33724 9.62891 6.46484C9.46484 6.59245 9.25521 6.65625 9 6.65625ZM6.15625 2.0625C5.75521 2.09896 5.53646 2.31771 5.5 2.71875C5.5 2.90104 5.5638 3.04687 5.69141 3.15625C5.96484 2.82812 6.3112 2.58203 6.73047 2.41797C6.60286 2.19922 6.41146 2.08073 6.15625 2.0625ZM3.69531 6.60156C3.49479 6.7474 3.3763 6.92969 3.33984 7.14844C3.28516 7.38542 3.33073 7.60417 3.47656 7.80469C4.27865 8.95312 5.24479 9.78255 6.375 10.293V10.3203C6.77604 9.9375 7.25911 9.73698 7.82422 9.71875L10.1758 9.71875C10.7409 9.73698 11.224 9.9375 11.625 10.3203V10.293C12.7552 9.78255 13.7214 8.95312 14.5234 7.80469C14.6693 7.60417 14.7148 7.38542 14.6602 7.14844C14.6237 6.92969 14.5052 6.7474 14.3047 6.60156C14.1042 6.45573 13.8854 6.41016 13.6484 6.46484C13.4297 6.5013 13.2474 6.61979 13.1016 6.82031C12.5911 7.53125 12.0078 8.08724 11.3516 8.48828C10.6953 8.87109 10.0026 9.0625 9.27344 9.0625H8.72656C7.9974 9.0625 7.30469 8.87109 6.64844 8.48828C5.99219 8.08724 5.40885 7.53125 4.89844 6.82031C4.7526 6.61979 4.57031 6.5013 4.35156 6.46484C4.11458 6.41016 3.89583 6.45573 3.69531 6.60156ZM6.8125 13.4375V13.3281C6.79427 12.6719 6.49349 12.1797 5.91016 11.8516C5.67318 11.7422 5.42708 11.6875 5.17188 11.6875H4.37891L4.13281 10.9766C4.0599 10.7396 3.91406 10.5664 3.69531 10.457C3.49479 10.3659 3.27604 10.3568 3.03906 10.4297C2.80208 10.5026 2.62891 10.6484 2.51953 10.8672C2.42839 11.0677 2.41927 11.2865 2.49219 11.5234L2.92969 12.8359C3.07552 13.2188 3.34896 13.4193 3.75 13.4375H6.8125ZM9.875 13.3281C9.89323 12.5078 10.1758 11.8151 10.7227 11.25C10.5768 11.1042 10.3945 11.0312 10.1758 11.0312L7.82422 11.0312C7.60547 11.0312 7.42318 11.1042 7.27734 11.25C7.82422 11.8151 8.10677 12.5078 8.125 13.3281V13.4375L9.875 13.4375V13.3281ZM15.5078 11.5234C15.5807 11.2865 15.5716 11.0677 15.4805 10.8672C15.3711 10.6484 15.1979 10.5026 14.9609 10.4297C14.724 10.3568 14.5052 10.3659 14.3047 10.457C14.0859 10.5664 13.9401 10.7396 13.8672 10.9766L13.6211 11.6875H12.8281C12.5729 11.6875 12.3268 11.7422 12.0898 11.8516C11.5065 12.1797 11.2057 12.6719 11.1875 13.3281V13.4375H14.25C14.651 13.4193 14.9245 13.2187 15.0703 12.8359L15.5078 11.5234ZM7.6875 5.125C7.41406 5.10677 7.26823 4.96094 7.25 4.6875C7.26823 4.41406 7.41406 4.26823 7.6875 4.25C7.96094 4.26823 8.10677 4.41406 8.125 4.6875C8.10677 4.96094 7.96094 5.10677 7.6875 5.125ZM10.3125 5.125C10.0391 5.10677 9.89323 4.96094 9.875 4.6875C9.89323 4.41406 10.0391 4.26823 10.3125 4.25C10.5859 4.26823 10.7318 4.41406 10.75 4.6875C10.7318 4.96094 10.5859 5.10677 10.3125 5.125Z" fill="#4A4A4A"/>
</svg>
