<svg width="18" height="13" viewBox="0 0 18 13" fill="none" xmlns="http://www.w3.org/2000/svg">
<path d="M16.875 5.875C17.1302 5.875 17.3398 5.95703 17.5039 6.12109C17.668 6.28516 17.75 6.49479 17.75 6.75C17.75 7.00521 17.668 7.21484 17.5039 7.37891C17.3398 7.54297 17.1302 7.625 16.875 7.625V9.59375C16.8568 10.0312 16.7109 10.3958 16.4375 10.6875C16.1458 10.9609 15.7813 11.1068 15.3438 11.125H14.4688C14.3958 11.125 14.332 11.1159 14.2773 11.0977C14.2591 11.0977 14.25 11.0977 14.25 11.0977V11.3437C14.2318 11.7812 14.0859 12.1458 13.8125 12.4375C13.5208 12.7109 13.1563 12.8568 12.7188 12.875H11.8438C11.4063 12.8568 11.0417 12.7109 10.75 12.4375C10.4766 12.1458 10.3307 11.7812 10.3125 11.3437V7.625L7.6875 7.625L7.6875 11.3438C7.66927 11.7812 7.52344 12.1458 7.25 12.4375C6.95833 12.7109 6.59375 12.8568 6.15625 12.875H5.28125C4.84375 12.8568 4.47917 12.7109 4.1875 12.4375C3.91406 12.1458 3.76823 11.7812 3.75 11.3438V11.0977C3.67708 11.1159 3.60417 11.125 3.53125 11.125H2.65625C2.21875 11.1068 1.85417 10.9609 1.5625 10.6875C1.28906 10.3958 1.14323 10.0312 1.125 9.59375L1.09766 7.625C0.860677 7.625 0.660156 7.54297 0.496094 7.37891C0.332031 7.21484 0.25 7.00521 0.25 6.75C0.25 6.49479 0.332031 6.28516 0.496094 6.12109C0.660156 5.95703 0.869792 5.875 1.125 5.875L1.125 3.90625C1.14323 3.46875 1.28906 3.10417 1.5625 2.8125C1.85417 2.53906 2.21875 2.39323 2.65625 2.375L3.53125 2.375C3.60417 2.375 3.67708 2.38411 3.75 2.40234V2.15625C3.76823 1.71875 3.91406 1.35417 4.1875 1.0625C4.47917 0.789062 4.84375 0.643229 5.28125 0.625H6.15625C6.59375 0.643229 6.95833 0.789062 7.25 1.0625C7.52344 1.35417 7.66927 1.71875 7.6875 2.15625V5.875H10.3125L10.3125 2.15625C10.3307 1.71875 10.4766 1.35417 10.75 1.0625C11.0417 0.789062 11.4062 0.643229 11.8438 0.625H12.7188C13.1562 0.643229 13.5208 0.789062 13.8125 1.0625C14.0859 1.35417 14.2318 1.71875 14.25 2.15625V2.40234C14.3229 2.38411 14.3958 2.375 14.4688 2.375H15.3438C15.7812 2.39323 16.1458 2.53906 16.4375 2.8125C16.7109 3.10417 16.8568 3.46875 16.875 3.90625V5.875ZM3.53125 9.8125C3.65885 9.79427 3.73177 9.72135 3.75 9.59375L3.75 3.90625C3.73177 3.77865 3.65885 3.70573 3.53125 3.6875H2.65625C2.52865 3.70573 2.45573 3.77865 2.4375 3.90625L2.4375 9.59375C2.45573 9.72135 2.52865 9.79427 2.65625 9.8125H3.53125ZM6.375 11.3438L6.375 2.15625C6.35677 2.02865 6.28385 1.95573 6.15625 1.9375H5.28125C5.15365 1.95573 5.08073 2.02865 5.0625 2.15625L5.0625 11.3438C5.08073 11.4714 5.15365 11.5443 5.28125 11.5625H6.15625C6.28385 11.5443 6.35677 11.4714 6.375 11.3438ZM12.9375 11.3437L12.9375 2.15625C12.9193 2.02865 12.8464 1.95573 12.7188 1.9375H11.8438C11.7161 1.95573 11.6432 2.02865 11.625 2.15625L11.625 11.3437C11.6432 11.4714 11.7161 11.5443 11.8438 11.5625H12.7188C12.8464 11.5443 12.9193 11.4714 12.9375 11.3437ZM15.5625 9.59375L15.5625 3.90625C15.5443 3.77865 15.4714 3.70573 15.3438 3.6875H14.4688C14.3411 3.70573 14.2682 3.77865 14.25 3.90625L14.25 9.59375C14.2682 9.72135 14.3411 9.79427 14.4688 9.8125H15.3438C15.4714 9.79427 15.5443 9.72135 15.5625 9.59375Z" fill="#4A4A4A"/>
</svg>
